<?xml version="1.0" standalone="yes"?>
<svg xmlns="http://www.w3.org/2000/svg" width="968" height="550">
<path style="fill:#ffffff; stroke:none;" d="M351 13L349.329 13.7831L348.841 13.9575L347.84 14.358L344.995 15.3303C344.004 15.6599 343.006 15.9738 342 16.2546C340.008 16.8105 337.968 17.1794 336 17.821C334.641 18.2639 333.34 18.8511 332 19.3441L330 20.0617C328.676 20.4921 327.345 20.9044 326 21.2646C323.358 21.9721 320.663 22.4241 318 23.0394C316.985 23.2738 315.991 23.5689 315 23.8858L312 24.929L307 26.6312L303 28.0648C301.347 28.6133 299.673 29.0958 298 29.5787L294 30.7199L290 32C288.672 32.4356 287.347 32.8809 286 33.2546C283.687 33.8964 281.316 34.2925 279 34.9198C276.31 35.6482 273.718 36.6929 271 37.321C270.006 37.5507 269.005 37.7115 268 37.8804C266.994 38.0496 265.989 38.1953 265 38.4553C263.629 38.8158 262.329 39.3603 261 39.8449C260.008 40.2067 259.013 40.5369 258 40.8341L256 41.3696C254.337 41.7878 252.673 42.1994 251 42.5764L248 43.2346L246 43.7346L243 44.5795L239 45.7091L236 46.5748C234.674 46.9392 233.342 47.273 232 47.5756L229 48.2346L227 48.7307L224 49.5008C222.676 49.7999 221.338 50.0191 220 50.2462L217 50.7538C216 50.9236 214.992 51.0736 214 51.2894C212.985 51.5102 211.989 51.7684 211 52.0887L208 53.1034L206 53.6605C204.679 53.9825 203.33 54.1695 202 54.4483L197 55.5509L195 55.9159L190 56.7538L187 57.2863C185.644 57.572 184.32 57.9358 183 58.3549C181.346 58.8802 179.712 59.4977 178 59.8141L176 60.0602L174 60.1559C172.991 60.2179 171.998 60.3102 171 60.4745C169.991 60.6406 168.995 60.8884 168 61.1204C166.326 61.5106 164.656 61.902 163 62.365C161.659 62.7399 160.354 63.2282 159 63.5587C158.008 63.8007 157.005 63.9567 156 64.1304L154 64.5093L150 65.5015L146 66.3349L145 66.5795L142 67.4205L141 67.6651L139 68.0803L137 68.4985L133 69.4869L131 69.831C129.665 69.9992 128.321 70.1064 127 70.3712C125.643 70.6431 124.332 71.0764 123 71.4452L120 72.196L117 72.8812L114 73.5756C111.999 74.0177 109.978 74.3791 108 74.9205C105.288 75.663 102.693 76.7581 100 77.5617C98.0104 78.1555 95.9657 78.5681 94 79.2415L92 80.0062L91 80.4499C89.6722 81.0633 88.358 81.6982 87 82.2438C85.6834 82.7728 84.3329 83.2071 83 83.6913C80.9826 84.4243 78.9638 85.1702 77 86.0394L75 86.9699C73.6474 87.665 72.3206 88.4028 71 89.1566L68 90.9151L67 91.5448C65.629 92.4677 64.2838 93.4201 63.0039 94.4676C61.6481 95.5771 60.3747 96.7682 59.1698 98.0394C58.2667 98.992 57.4302 100.005 56.5756 101.001L54.8349 103L52.1142 106L50.4552 108L49.7137 109L47.635 112L46.1752 114C44.9742 115.629 43.737 117.225 42.7531 119C41.8674 120.598 41.2389 122.313 40.5517 124L39.6883 126L37.3086 131C36.5596 132.642 35.8589 134.309 35.2292 136C34.8604 136.99 34.507 137.987 34.2052 139L33.0918 143L32.1597 146L30.7531 150C30.1582 151.656 29.5468 153.299 29.0895 155C28.7349 156.319 28.4715 157.662 28.2006 159L27.4205 162.996L27.0417 164.961L26.8302 165.91L26.3048 167.715L25.7106 169.424L25.2585 171.17C25.083 172.11 25.0469 173.063 24.9792 174.015C24.9081 175.014 24.8357 176.005 24.7145 177L24.2708 180L23.7292 184C23.5416 185.333 23.298 186.659 23.1698 188C22.9153 190.661 23.0837 193.339 22.8302 196L22.4244 199C22.2853 199.999 22.1585 200.993 22.0895 202C21.9984 203.331 22.0036 204.667 22.0008 206L22 212L22.0008 216C22.0114 217.669 22.0108 219.336 22.1698 221C22.2658 222.005 22.4302 223.002 22.5795 224L22.8696 226L23.2716 229L23.9236 233C24.095 234.004 24.2743 235.006 24.4992 236L25.2731 239L26.3627 243L27.6373 247L28.7454 251C29.1464 252.358 29.6141 253.688 30.1458 255C30.6935 256.352 31.3116 257.677 31.9236 259C32.5476 260.349 33.1856 261.688 33.8858 263L36.6914 268C38.1423 270.678 39.416 273.457 41.1049 276C41.7937 277.037 42.5339 278.029 43.3133 279L46.6397 283C47.9266 284.634 49.066 286.379 50.3711 287.999C51.4664 289.359 52.6489 290.641 53.8457 291.91C54.9701 293.104 56.1147 294.276 57.2855 295.424C59.1183 297.22 61.002 298.964 62.9113 300.679L65.5756 302.996L69.0895 306.011C70.3677 307.075 71.6718 308.105 73.0008 309.105C75.2775 310.817 77.634 312.414 80 313.999L85 317.333L90 320.716C91.3175 321.621 92.6127 322.571 94 323.37C95.6025 324.292 97.3185 324.974 99 325.734L101 326.774C102.02 327.34 103.003 327.974 104 328.579C105.973 329.777 107.938 330.989 110 332.03L115 334.369L119 336.511C119.981 337.016 120.972 337.48 122 337.883C123.634 338.522 125.34 338.954 127 339.516C128.692 340.089 130.349 340.747 132 341.425L135 342.719L138 344.005C139.012 344.445 140.03 344.88 141 345.41C142.757 346.37 144.379 347.531 145.91 348.819C146.835 349.597 147.716 350.422 148.561 351.285C149.684 352.432 150.721 353.658 151.8 354.845L153.396 356.576C154.442 357.712 155.495 358.835 156.402 360.09C157.74 361.941 158.758 364.004 159.857 366C160.588 367.326 161.364 368.632 162.015 370C162.628 371.287 163.137 372.611 163.468 374C164.247 377.278 163.848 380.673 164.17 384C164.267 385.006 164.433 386.002 164.59 387L164.924 389C165.225 390.694 165.523 392.386 166.144 394L167.05 396L167.613 397L168.939 398.996L169.684 399.985L171.301 401.906C172.684 403.39 174.214 404.723 176.004 405.697C177.259 406.38 178.617 406.816 180 407.152C181.314 407.472 182.656 407.687 184 407.83C184.998 407.936 185.999 407.964 187 408.025C188.005 408.086 189.001 408.164 190 408.285L193 408.733C194.339 408.938 195.684 409.116 197 409.444C198.02 409.699 199.006 410.047 200 410.383L202 411.069C203.338 411.524 204.695 411.932 206 412.478C207.406 413.067 208.749 413.775 210 414.649C211.807 415.911 213.421 417.445 214.96 419.015C215.903 419.978 216.795 420.977 217.671 422L218.471 423L219.895 425C221.375 427.222 222.541 429.629 223.756 432C224.272 433.007 224.772 434.028 225.352 435L226.633 437L228.174 439L230.73 441.999L233.285 444.956L235.09 446.775L237.015 448.301C238.546 449.359 240.271 450.1 242 450.767C244.574 451.76 247.251 452.528 250 452.826C250.996 452.935 251.999 452.964 253 452.985L257 453C259.332 453 261.675 453.051 264 452.83C265.674 452.671 267.325 452.329 269 452.17C270.331 452.043 271.664 452.016 273 452.004L276 452.001L279 452.054L280 452.129L282 452.459C283.023 452.689 284.007 453.05 285 453.38L288 454.336L291 455.166L292 455.468L293.999 456.214L294.996 456.684L296.961 457.85C298.598 458.965 299.984 460.368 301.424 461.715L303.17 463.255C304.089 464.015 305.055 464.713 306.015 465.42L307.004 466.137L309 467.535L310 468.187L311 468.79L313 469.812L315 470.612L316 470.945C316.993 471.233 317.978 471.502 319 471.674C320.977 472.007 323.001 472.009 325 471.995C326.331 471.986 327.676 471.983 329 471.829C330.682 471.634 332.345 471.344 334 470.985C335.692 470.618 337.364 470.187 339 469.617C341.378 468.788 343.626 467.637 346 466.799C347.313 466.337 348.654 465.981 350 465.63L354 464.576C355.329 464.213 356.647 463.789 358 463.519C358.994 463.32 359.985 463.193 361 463.183C362.347 463.169 363.678 463.382 365 463.616L368 464.211L373 465.353C374.341 465.67 375.691 465.97 377 466.404C379.042 467.082 380.957 468.081 383 468.756C384.633 469.296 386.317 469.653 388 469.996C389.654 470.334 391.318 470.661 393 470.829C394.33 470.962 395.664 470.981 397 470.995L399 470.981L401 470.867L402 470.725L403 470.502L405 469.787C406.018 469.32 407.008 468.81 408 468.289C409.007 467.761 410.021 467.233 411 466.652L413 465.377L414 464.649C415.029 463.889 416.001 463.055 417 462.257C418.631 460.955 420.253 459.626 422 458.479C422.959 457.849 423.946 457.225 425 456.761L427 455.954L430 455.004C431.321 454.602 432.656 454.219 434 453.899C435.321 453.584 436.649 453.317 438 453.174C439.327 453.033 440.666 453.008 442 453.008C443.674 453.008 445.339 453.074 447 453.289C449.017 453.551 451 454.026 453 454.386L455 454.725L459 455.271C460.996 455.555 462.976 455.925 465 455.921C467.032 455.918 469.031 455.582 471 455.1C472.703 454.684 474.404 454.181 476 453.447C477.767 452.635 479.38 451.556 480.996 450.486C482.315 449.613 483.626 448.703 484.791 447.628L486.406 445.939C487.366 444.811 488.26 443.619 489.375 442.633C490.762 441.407 492.403 440.501 494.004 439.591C495.945 438.487 497.919 437.449 500 436.63L502 435.909L503 435.624L504 435.419L506 435.289C507.355 435.33 508.728 435.649 510 436.106C511.019 436.471 512.016 436.87 513 437.323C514.36 437.951 515.667 438.679 517 439.36C517.992 439.867 518.976 440.389 520 440.83L525 442.871L528 444.215C528.982 444.643 529.966 445.071 531 445.363C532.631 445.823 534.31 445.972 536 445.945L538 445.826L539 445.699L540 445.532L542 445.076C544.305 444.488 546.572 443.444 549 443.588C550.032 443.649 551.024 443.938 552 444.259L554 445.016L556 445.862C557.688 446.604 559.34 447.424 561 448.224C562.685 449.036 564.382 449.818 566 450.761C567.024 451.357 568.002 452.024 569 452.662C569.99 453.294 570.984 453.911 572 454.502C574.301 455.839 576.684 457.026 579 458.334C580.385 459.116 581.708 459.999 583 460.924C584.694 462.136 586.284 463.493 588 464.675C589.58 465.764 591.234 466.723 593 467.481C594.283 468.033 595.611 468.52 597 468.718C598.34 468.91 599.689 468.837 600.999 468.496C602.033 468.227 603.024 467.793 603.957 467.276C605.229 466.571 606.383 465.694 607.367 464.62C608.112 463.807 608.689 462.875 609.29 461.957L610.5 459.996C611.297 458.687 612.114 457.384 612.779 456C613.412 454.684 613.978 453.339 614.561 452L616.266 448L617.861 444C618.567 442.319 619.33 440.662 620.08 439C620.681 437.671 621.302 436.35 621.854 435C622.258 434.012 622.626 433.013 622.961 432C623.396 430.682 623.756 429.343 624.106 428L624.594 426.005L625.144 424.059L625.513 423.148L625.988 422.318L626.589 421.603L628.147 420.603L629.059 420.317L631.005 420.044L633 419.915L634 419.83L635.999 419.556L636.995 419.366L637.981 419.137L639.852 418.486L640.682 418.012L641.397 417.411L641.971 416.686L642.393 415.853L642.812 413.981L642.807 411.999L642.695 411L642.331 409C642.044 407.646 641.662 406.317 641.235 405.001L640.867 404.005L639.911 402.059L638.586 400.318L636.937 399.028L636.117 398.604L635.143 398.315L633 398C632.511 399.34 631.978 400.672 631.584 402.045L630.786 404.993L629.988 406.902L628.683 408.508L627.852 409.096L626.941 409.504L625.981 409.712L624.996 409.739L624.003 409.588L622.044 408.841L621.109 408.268L619.434 406.772L618.184 404.956L617.762 403.985L617.492 402.997L617.377 402.004L617.647 400.058L618.043 399.144L619.319 397.564L621.059 396.434L623.005 395.724L625 395.305L627 395.086L629 394.975L631 394.831C632.677 394.661 634.337 394.352 636 394.08L639 393.59C639.998 393.431 640.994 393.273 642 393.169C643.664 392.997 645.347 393.02 647 392.742C648.364 392.512 649.673 392.085 651 391.706L653 391.22C653.992 391.014 655 390.886 656 390.733L660 390.155C661.333 389.987 662.675 389.91 664 389.679C666.029 389.326 667.996 388.7 670 388.235L677 386.785C678.349 386.483 679.689 386.156 681 385.711C682.673 385.144 684.313 384.485 686 383.96C686.99 383.652 687.993 383.387 688.998 383.134C690.271 382.815 691.548 382.532 692.84 382.301L694.329 382.099L696 382L694.773 383.148L693.912 384.255L693.648 384.565L693 386L694.671 387.63L696.16 388.991L699.962 392.287C700.923 393.164 701.835 394.077 702.711 395.039L704.384 397.004C705.452 398.319 706.493 399.652 707.525 400.995C708.497 402.26 709.411 403.582 710.513 404.741L712.17 406.286L714.845 408.366C716.335 409.586 717.747 410.895 719.076 412.29C719.92 413.175 720.74 414.081 721.501 415.039C722.772 416.639 723.939 418.32 725.321 419.83C726.427 421.039 727.664 422.112 728.844 423.246L732.996 427.339C734.306 428.634 735.646 429.899 736.845 431.3C737.598 432.18 738.296 433.099 738.975 434.035C740.118 435.612 741.183 437.248 742.517 438.675L744.17 440.255L745.951 441.745L746.845 442.514L748.573 444.184L750.246 446.036L752.739 448.911L756.665 453.285L759.174 456.039C762.663 459.776 766.38 463.289 769.911 466.985L773.424 470.715L777.844 475.075L781.196 478.715L784.424 482.169L790.117 488.576L791.665 490.285C792.779 491.506 793.881 492.732 795.089 493.862L797 495.339L798.911 496.079L799.826 496.079L800.7 495.825L801.536 495.342L803.116 493.887L803.884 493.03L805.464 491.281C806.607 490.078 807.836 488.971 809.039 487.83C811.711 485.298 814.359 482.731 816.83 480L820.286 476C821.181 474.978 822.1 473.982 823.039 473L826 470L828.96 467L830.811 465.002L832.427 463.025L833.676 461.16L834.444 459.671L835 458L832.841 457.451L831.84 457.35C830.884 457.431 829.89 457.53 828.996 457.907L828.002 458.321L826.039 459.514L825.089 460.279L823.289 462.055C822.146 463.326 821.089 464.667 820 465.985C819.211 466.939 818.429 467.906 817.561 468.791L815.829 470.406L811.996 473.375C810.599 474.494 809.291 475.733 808.043 477.015C807.111 477.973 806.22 478.963 805.375 479.998L803.139 482.883C802.312 483.876 801.294 484.938 799.896 484.945C798.808 484.951 797.855 484.335 797 483.743L796.014 482.972L794.093 481.276C792.913 480.192 791.773 479.063 790.745 477.831C789.458 476.287 788.293 474.627 786.84 473.227L785.12 471.74L784.144 471.112L783.667 470.775L782 470L782.775 468.329L783.736 466.84L785.188 464.975L787.73 462.001C789.142 460.353 790.521 458.677 792.089 457.174C794.554 454.811 797.417 452.924 799.999 450.7C801.019 449.822 802.004 448.911 802.961 447.965L805.714 445.103C806.553 444.246 807.374 443.382 808.281 442.594L810.891 440.407L812.4 438.816L813.396 437.117L813.685 436.144L814 434L812.329 433.588L810.854 433.438L809.995 433.496L808.165 434.067L806.424 435.306L803.83 437.806L801.964 439.367C800.752 440.293 799.404 441.018 798.17 441.911L797.286 442.544C796.097 443.47 794.953 444.446 793.845 445.468C792.924 446.316 792.022 447.182 791.155 448.086L787.714 451.792L785.911 453.406L783.985 454.861L781.999 456.366C781.005 457.162 780.04 458.004 779.005 458.747C778.177 459.34 777.191 459.949 776.129 459.945L774.455 459.368L773.71 458.719L773 457.926L772.29 457.066L770.745 455.373L769.886 454.594L767.165 452.406L765.424 450.791L764.576 449.896L762.85 447.986L761.969 447.001L761.11 446.024L759.607 444.16L758.654 442.671L758 441L759.671 440.938L760.159 440.853L761.16 440.682L763.01 439.972C764.831 439.009 766.22 437.498 767.571 435.981L768.406 434.995C769.491 433.687 770.55 432.364 771.584 431.015L773.71 428.17L775.245 426.424L777.849 423.83C779.326 422.288 780.73 420.669 782.061 418.999L783.606 417L784.82 415L785.508 413.005L785.623 412.019L785.573 411.059L785.353 410.153L784.407 408.662L783.721 408.176L782.111 407.921L780.421 408.662L779.579 409.337L777.873 411.059L777.015 412.019L775.364 414.001L773.9 415.996L771.911 418.91C771.237 419.853 770.486 420.717 769.711 421.576L767.249 424.155L763.211 428.537C762.205 429.585 761.137 430.577 760.174 431.665L759.483 432.464L758.854 433.3L757.854 435.086L757.279 436.97L757.133 437.843L757.019 439.329L757 441L754.421 437.84C753.605 436.871 752.769 435.922 751.906 434.995C749.676 432.599 747.297 430.346 745.015 428C744.056 427.015 743.11 426.025 742.194 425L741.363 424L740.627 423L740.027 422.001L739.368 420.015L739.357 419.039L739.553 418.09L739.923 417.17L740.988 415.425L741.6 414.579C742.253 413.705 742.915 412.843 743.609 412L744.379 411.13L745.21 410.271L747.042 408.575L748.989 406.83C749.96 405.907 750.918 404.981 751.816 403.985C753.504 402.113 754.935 400.046 756.42 398.015L759.147 394.287L760.146 392.6L760.487 391.759L760.867 390.07L760.942 389.63L761 388L758.88 387.626L757.929 387.607L756.261 388.114L755.42 388.629L754.574 389.293L752.83 390.89L750.961 392.58L749.985 393.425L748 395.17L747.004 396.09L746.015 397.039C744.755 398.307 743.516 399.585 742.414 400.996L741.031 402.961C740.432 403.885 739.872 404.837 739.204 405.715C738.269 406.944 737.188 408.042 736.117 409.15C735.055 410.249 734.023 411.384 732.874 412.393L731.992 413.005L731.573 413.346L730 414L729.349 412.37L728.429 411.013L727.025 409.439L724.661 407.116L723.116 405.536L720.701 402.91L717.075 399.014L713.591 395.285L711.12 392.73L707.566 388.736L706.795 388.111L706.447 387.775L705 387L705 385L706.389 384.639L707.333 383.722L707.639 383.389L708 382L703 382L704.671 380.881L705.159 380.654L706.16 380.124L708.025 379.383L710.002 378.802L712 378.5L713 378.489L714 378.576L716 379.032L718 379.83L719 380.335L720 380.865L721 381.383L722 381.82L723 382.129L724.999 382.169C726.11 381.953 727.079 381.345 727.961 380.667L728.91 379.848L729.826 378.941L731.521 376.995L733.011 375L733.671 374L734.812 372L735.295 371L735.731 370L736.476 368C736.92 366.688 737.251 365.345 737.576 364L738.035 362L738.555 360C739.026 358.345 739.555 356.711 739.791 355C739.927 354.013 739.984 352.996 739.97 352C739.956 350.997 739.932 349.999 739.826 349L739.532 347.004L739.316 346.015C739.035 344.744 738.581 343.466 737.861 342.375C736.899 340.917 735.449 339.893 734.274 338.625C733.547 337.841 732.987 336.954 732.603 335.957C731.999 334.388 732.038 332.651 732.005 331C731.957 328.664 732.074 326.314 731.671 324C731.371 322.275 730.802 320.633 730.184 319C729.674 317.65 729.117 316.315 728.522 315L727.092 312L726.166 310L724.922 307L724.019 305L722.956 303L721.753 301L720.396 299L719.645 298L718.103 296L717.423 295L716.906 294L716.63 292.004L717.451 290.039L718.167 289.09L719.854 287.3L721.576 285.67L722.423 284.904L724.145 283.484L725.879 282.309L727.333 281.556L729 281L729.654 282.488L729.995 282.883L730.607 283.735L731.302 284.469L732.11 285.306L733.846 287.052C735.223 288.48 736.551 289.955 737.884 291.424L741.174 295.039L744.015 297.997L746.985 300.91L749.83 303.572L753.281 306.901L754.145 307.695L755.879 309.108L757.333 310.096L759 311L759.768 309.333L760.265 307.884L760.691 306.134L760.802 305.667L761 304L759.651 303.346L759.373 303.005L758.721 302.39L757.117 299.981L755.716 298.165C754.655 296.937 753.419 295.869 752.281 294.715L748.834 291.025L747 289.169L743.424 285.715L740.83 283L738.961 281.166L736.058 278.6L734.321 276.991L733.086 275.63L732 274L733.36 273.346L733.753 273.005L734.576 272.39L736.154 270.851C737.335 269.601 738.457 268.304 739.579 267.003C740.712 265.691 741.831 264.369 743.089 263.174L745.015 261.488L746.004 260.742L747.001 260.087L749 259.217L750 259.078L751 259.161L751.999 259.462L753.985 260.592C755.028 261.31 755.921 262.207 756.816 263.094L757.675 264.04L758.486 265.014L759.255 266L760.742 267.961L762.286 269.83L763.095 270.715L766.428 274.17C767.953 275.78 769.443 277.42 771.015 278.986C771.986 279.955 772.981 280.896 773.985 281.83L775.911 283.575L777.714 285.266L780.261 287.721L781.929 288.975L783.344 289.657L785 290L786.04 288.478L787.159 287.359L787.478 287.04L789 286L789 283L787.329 282.112L786.845 281.798L785.854 281.194C784.61 280.358 783.402 279.482 782.284 278.481C781.066 277.392 779.958 276.177 778.87 274.96L776.271 271.999L774.575 270L772.83 268C771.586 266.646 770.318 265.319 768.996 264.039C768.021 263.096 767.02 262.184 766.004 261.285L763.094 258.715L761.341 256.91L759.873 254.985L758.833 252.999L758.418 251L758.774 249L759.818 247L761.319 245L763.087 243L764.975 241.004L766.831 239.041L767.714 238.099L768.576 237.208L769.424 236.403L770.286 235.721L771.169 235.211L773.025 234.886C774.498 235.034 775.7 236.093 776.714 237.074L778.424 238.839L780.17 240.575L781.089 241.42L783.015 243.115C783.991 243.941 784.961 244.766 785.996 245.52C787.231 246.42 788.559 247.179 789.826 248.03L791.536 249.4L793.116 251.019C793.894 251.871 794.649 252.746 795.464 253.565L797.174 255.195L799.039 256.789L801.004 258.33C801.965 259.041 802.939 259.77 804 260.329C804.939 260.823 805.91 261.211 806.975 261.311L808.84 261.183L809.841 260.883L810.329 260.728L812 260L811.529 258.37L810.829 257.009L809.655 255.404C808.924 254.55 808.158 253.735 807.38 252.924C806.295 251.79 805.14 250.731 803.911 249.756C802.654 248.76 801.302 247.898 800.003 246.961C799 246.237 798.014 245.498 797.089 244.675C796.145 243.835 795.29 242.918 794.424 241.999L792.714 240.166L790.911 238.424L787.996 235.845L785.002 233.174L783.025 231.573L781.16 230.324L779.671 229.556L778 229L778.639 227.329L778.956 226.845L779.52 225.854L780.849 224.065C781.586 223.165 782.348 222.294 783.12 221.424L784.665 219.718C785.491 218.819 786.309 217.914 787.173 217.05C788.374 215.849 789.651 214.732 790.895 213.577L792.566 211.855L793.815 210.121L794.529 208.667L795 207L796.671 207.654L797.159 207.995L798.16 208.61L800.025 210.134L802.985 212.835L805.791 215.424L807.402 217.169C808.158 218.062 808.808 219.037 809.505 219.975C810.201 220.914 810.904 221.838 811.68 222.714C813.58 224.858 815.77 226.716 818.003 228.501C819.284 229.524 820.661 230.431 821.896 231.513L822.791 232.321L824.406 234.053L825.861 235.826L826.593 236.66L828.184 238.106L829.883 239.14L830.857 239.498L831.333 239.699L833 240C833.376 238.933 833.774 237.928 834.077 236.843L834.306 235.019L833.868 233.208L832.667 231.594L831.849 230.861L829.995 229.406L828.089 227.791L826.286 225.957C825.398 225.004 824.579 223.985 823.729 222.999L820.271 219.015C819.432 218.055 818.604 217.084 817.714 216.17L815.911 214.424L812.996 211.83C811.286 210.265 809.643 208.634 808 206.999L804 203.005L802 201.059L801 200.153L799.001 198.662L798.004 198.176L797.015 197.921L796.039 197.921C794.976 198.053 794.085 198.673 793.286 199.337L791.576 201.059L789.83 203.005L787.961 205C785.014 208.01 781.984 210.94 779.089 214C778.17 214.972 777.302 215.99 776.424 217L773.83 220C771.95 222.047 770.006 224.036 768 225.961L765.015 228.715C764.072 229.561 763.101 230.38 762.209 231.282L760.595 233.05L758.445 235.718C757.469 236.876 756.437 237.98 755.396 239.08L752.999 241.576C751.649 242.95 750.283 244.308 748.83 245.576L746.025 247.885L744.184 249.464L742.514 251.174L741.745 252.09C740.451 253.738 739.212 255.431 737.816 256.996C736.613 258.343 735.33 259.614 733.996 260.83L730.004 264.285L728.043 266.09L727.104 267.039L726.209 268.015L724.594 270.001C723.604 271.333 722.674 272.713 721.625 274C720.206 275.741 718.651 277.386 716.996 278.905L715.999 279.806L714 281.369L712.005 282.364L710.055 282.458L709.133 282.118C708.158 281.646 707.431 280.77 706.8 279.923L705.591 277.995L704.421 276L701.217 271C699.95 269.022 698.715 267.031 697.279 265.17C696.36 263.979 695.342 262.873 694.385 261.715C693.647 260.822 692.948 259.911 692.286 258.961L689.725 255C688.389 252.982 687.034 250.968 685.504 249.09C684.524 247.887 683.449 246.771 682.416 245.615C681.471 244.558 680.562 243.47 679.65 242.385C678.712 241.269 677.75 240.16 676.99 238.91L676.448 237.961L675.595 235.996L674.911 234L674.12 232C673.482 230.612 672.67 229.314 671.896 228L670.139 225C669.319 223.638 668.474 222.301 667.56 221C666.604 219.639 665.583 218.326 664.579 217L663.055 215L662.343 214L661.164 212L660.433 210C660.081 208.697 660.063 207.337 659.976 206L659.831 204L659.572 202L659.079 199L658.551 196L657.449 191C657.117 189.339 656.91 187.652 656.536 186C656.307 184.988 656.05 183.978 655.699 183L655.336 182L653.224 177C652.364 174.972 651.563 172.921 650.475 171C649.687 169.611 648.776 168.303 647.855 167L645.705 164C644.471 162.296 643.244 160.589 641.816 159.039C640.064 157.139 638.09 155.445 636 153.928C634.43 152.789 632.795 151.74 631 150.991C629.711 150.453 628.359 150.12 627 149.816L624 149.2C621.355 148.671 618.707 148.106 616 148.054C615.005 148.035 613.989 148.053 613 148.174L611 148.464C609.994 148.663 608.993 148.88 608 149.135C606.993 149.393 605.973 149.645 605.001 150.018C603.957 150.418 602.961 150.904 602.054 151.564L600.264 153.144L599.474 154.058L598.133 156.005L597.044 158L596.1 160L595.269 162L594.915 163L594.379 165C594.102 166.318 594.039 167.667 593.867 169L593.686 169.999L592.972 171.985L591.682 173.906L590.852 174.811L588.981 176.431L587.995 177.121L586 178.231C584.415 178.983 582.717 179.399 581 179.711L579 180C577.997 180.139 576.996 180.274 576 180.46L573 181.116L571 181.536L569 181.826C567.339 182.004 565.668 181.982 564 182.003C562.664 182.02 561.331 182.043 560 182.17C558.326 182.329 556.675 182.671 555 182.83C553.336 182.989 551.669 182.989 550 182.999L546 182.985L544 182.91L542 182.715L538 182.17C536.007 181.98 534 181.994 532 182.001C529.994 182.007 527.992 182.021 526 182.29L524 182.63L523 182.848L522 183.108L520 183.804C517.836 184.721 515.929 186.095 514 187.414L511 189.459C509.703 190.294 508.368 191.09 507 191.803L505 192.785L504 193.181L503 193.487L501 193.774C499.304 193.85 497.608 193.442 496 192.945C494.974 192.628 493.986 192.232 493 191.812L491 190.791L490 190.19L487 188.191L484 186.228L479 183.201C476.128 181.491 473.238 179.72 470 178.789C469.023 178.509 468.012 178.286 467 178.185L465 178.04L462 178.001C460 177.994 457.992 177.977 456 178.17C454.658 178.3 453.329 178.536 452 178.754L447 179.576L445 179.87L442 180.285C440.992 180.454 439.997 180.665 439 180.884C437.344 181.248 435.696 181.672 434 181.812L432 181.87L431 181.812L429 181.535C427.99 181.358 426.991 181.104 426 180.845C424.659 180.495 423.33 180.098 422 179.706C419.278 178.904 416.516 178.133 414 176.787L412 175.591L410 174.171C408.685 173.199 407.389 172.196 406 171.329L404 170.184L403 169.691L401 168.79L399 167.92L397 167.05L394 165.808L393 165.42L391 164.728L390 164.46L388 164.133C386.999 164.031 386.003 164.059 385 164.099L384 164.189L382 164.557L380 165.213C378.968 165.613 377.988 166.134 377 166.63C376.004 167.13 375.02 167.649 374 168.1L372 168.911C370.319 169.514 368.609 170.047 367 170.83C365.964 171.335 364.987 171.939 364 172.531C362.683 173.32 361.385 174.142 360 174.812C359.025 175.283 358.027 175.683 357 176.025C355.686 176.463 354.335 176.785 353 177.15C350.686 177.785 348.391 178.53 346 178.816C344.676 178.974 343.332 178.998 342 178.981C340.66 178.965 339.324 178.891 338 178.675C336.643 178.453 335.323 178.071 334 177.706C332.671 177.339 331.346 176.967 330 176.665L324 175.501L320 174.514L318 174.184C316.674 174.026 315.334 174.016 314 174.004L311 174.001C309.004 174.01 306.97 173.963 305 174.34C303.97 174.537 302.975 174.827 302 175.214L300 176.138L299 176.681L298 177.258C296.982 177.884 295.984 178.528 295 179.206C293.641 180.143 292.312 181.13 291 182.131L288 184.463C286.977 185.299 285.99 186.172 285.004 187.051L280.285 191.33C279.171 192.329 278.051 193.331 276.83 194.2C275.314 195.279 273.676 196.159 271.999 196.96C270.37 197.738 268.689 198.4 267 199.035C265.353 199.655 263.7 200.253 262 200.711C260.353 201.153 258.671 201.466 257 201.8C255.339 202.132 253.678 202.477 252 202.715L247 203.296C245.991 203.452 244.997 203.667 244 203.884L242 204.336C241.002 204.54 240.006 204.714 239 204.87C237.998 205.025 236.99 205.141 236 205.364L234 205.904L232 206.633L230 207.519L228 208.61L226 209.935C224.642 210.925 223.311 211.949 222.004 213.004C221.02 213.797 220.051 214.602 219.105 215.439L218.213 216.289L216.637 218.09C215.931 219.005 215.357 220.004 214.782 221.004L213.09 224L210.695 228L208.424 232L207.191 234L206.002 236C205.249 237.319 204.599 238.699 203.791 239.985C203.157 240.995 202.457 241.942 201.66 242.829C200.835 243.747 199.913 244.597 198.96 245.38L196.996 246.946L195.999 247.674L194 248.968C193.026 249.555 192.005 250.061 191 250.59L190 251.12L188 252.271C186.974 252.928 185.974 253.602 185.004 254.34C182.415 256.311 180.097 258.595 177.715 260.804C176.507 261.924 175.248 262.998 174.09 264.171C173.206 265.067 172.384 266.002 171.634 267.015C170.933 267.963 170.336 268.982 169.745 270L168.066 272.996C167.501 273.989 166.927 274.98 166.262 275.91C165.15 277.464 163.808 278.825 162.555 280.261L161.323 281.929L160.556 283.344L160 285L158.329 284.548L157.841 284.335L156.84 283.948L153.995 282.614C152.683 282.011 151.344 281.487 150 280.961C147.657 280.045 145.303 279.155 143 278.138L137 275.309C134.665 274.239 132.26 273.329 130 272.1C128.275 271.161 126.644 270.07 125 269L121 266.425C117.307 264.125 113.452 262.044 110.039 259.324C109.083 258.562 108.175 257.754 107.285 256.916L103.83 253.611C102.266 252.206 100.6 250.925 99 249.561L97.0147 247.829C96.0402 246.909 95.0813 245.984 94.1852 244.985C93.3331 244.036 92.5211 243.042 91.7847 242L89.1034 238L87.6613 236L86.081 234C85.2984 233.011 84.5127 232.028 83.7816 231C82.8623 229.707 82.0226 228.359 81.2045 227C80.0108 225.018 78.8583 223.014 77.7199 221C76.4286 218.715 75.0666 216.455 74.1181 214C73.3696 212.063 72.8745 210.029 72.4491 208L71.8812 205L71.4205 203L70.8611 201L70.3565 199L69.5602 195L68.7099 192L68.4552 191L68.1289 189L68.0185 187L68.0015 185C68.0077 183.331 68.0115 181.663 68.1698 180L68.831 175L69.0255 172L69.1875 170L69.5532 168C70.0563 165.941 70.9915 164.019 71.6204 162C72.1332 160.353 72.462 158.657 72.9375 157L73.6373 155L74.6235 153L75.2207 152L76.5147 150C77.4305 148.641 78.348 147.289 79.3611 146C80.4383 144.629 81.5991 143.326 82.7299 142C83.8699 140.663 84.9785 139.293 86.1698 138.001C88.2518 135.742 90.4238 133.566 92.7145 131.518C93.8293 130.521 94.9746 129.559 96.1698 128.66L101.001 125.105L104 122.805L106 121.303L108 119.98L109 119.414L111 118.478C111.98 118.063 112.997 117.747 114 117.396C115.013 117.042 116.02 116.694 117 116.254C118.377 115.636 119.67 114.864 121 114.156C122.306 113.46 123.629 112.816 125 112.257C126.311 111.723 127.658 111.28 129 110.835C130.328 110.394 131.659 109.958 133 109.558L137 108.515C138.012 108.231 139.005 107.912 140 107.576C140.998 107.24 141.984 106.874 143 106.594C144.317 106.231 145.658 105.998 147 105.754L150 105.193C151.004 104.989 152.006 104.775 153 104.525C154.666 104.107 156.316 103.633 158 103.285L162 102.576L166 101.799L169 101.161L171 100.633L175 99.3665L177 98.8426C178.651 98.4539 180.328 98.1986 182 97.9197L185 97.4097C186.002 97.2343 187.009 97.0611 188 96.8302C190.024 96.3589 191.977 95.6434 194 95.1698L197 94.5795L201 93.7994L204 93.1605L206 92.6335C207.666 92.1151 209.316 91.5443 211 91.0856L213 90.5903L217 89.625L221 88.5756L224 87.7091L227 86.8449C228.01 86.535 229.01 86.2116 230 85.8411L233 84.6559C233.99 84.2752 234.993 83.943 236 83.6119L238 82.9792L242 81.7168L246 80.4846L250 79.0471L254 77.5764L257 76.4344L260 75.3951L262 74.6759L264 73.777L265 73.2546C266.32 72.5444 267.62 71.8009 269 71.2083C270.303 70.6488 271.661 70.2553 273 69.7979C274.014 69.4514 275.014 69.0853 276 68.6628C277.016 68.2271 278.012 67.736 279 67.24L282 65.7029L285 64.108L287 63.108L291 61.1944L294 59.5864L296 58.4861L298 57.4861L302 55.6913C303.357 55.0695 304.702 54.4 306 53.662L308 52.456L311 50.4236L314 48.4352L317 46.5764L321 44.0463L324 42.1026L326 40.6643L330 37.5787C331.329 36.5895 332.706 35.6672 333.999 34.6288C335.022 33.8079 335.989 32.9296 336.961 32.0502L339.7 29.5131C340.776 28.519 341.859 27.5344 342.883 26.4861C343.991 25.3518 345.037 24.1622 346.069 22.9599L347.66 20.9962L349.081 19.0046L350.242 17.0587L351.019 15.321L351.155 14.517L351.288 14.0864L351 13M860 154L860.612 155.656L860.903 156.12L861.426 157.071L862.635 158.739L864.75 161.285C866.408 163.222 868.137 165.095 869.829 167.001L871.471 169L872.896 171C874.176 172.912 875.204 174.977 876.449 176.91C877.609 178.711 878.981 180.361 880.128 182.17C881.121 183.734 881.95 185.394 882.871 187.001L885.83 192C886.738 193.635 887.504 195.338 888.358 197L891.031 202C891.856 203.649 892.54 205.365 893.394 207C894.288 208.709 895.358 210.314 896.29 212C897.012 213.306 897.655 214.65 898.29 216C898.758 216.994 899.239 217.987 899.666 219L900.457 221C901.025 222.667 901.542 224.35 902.158 226L903.714 230C904.409 231.986 905.015 234.001 905.67 236L906.999 240L907.964 243C908.259 243.994 908.523 244.992 908.768 246C909.091 247.335 909.377 248.676 909.745 250C910.215 251.685 910.791 253.337 911.33 255C911.974 256.986 912.596 258.975 913.105 261C913.603 262.984 913.999 264.992 914.39 267C914.649 268.332 914.86 269.678 915.17 271C915.565 272.689 916.128 274.328 916.584 276C916.942 277.312 917.179 278.66 917.406 280C917.575 280.997 917.731 281.995 917.845 283L918.155 286L918.427 288L918.754 290L919.41 294C919.57 294.997 919.731 295.994 919.83 297C920.027 298.995 919.977 301.004 920.17 303C920.332 304.674 920.668 306.326 920.83 308C921.023 309.996 920.977 312.004 921.17 314L921.576 317C921.715 317.999 921.841 318.993 921.911 320C922.07 322.33 921.93 324.67 922.089 327C922.25 329.348 922.75 331.652 922.911 334C922.979 334.998 922.987 336 922.996 337L923 340L923 350L923 360L922.996 363C922.987 364 922.98 365.002 922.911 366C922.84 367.005 922.729 368.006 922.561 369C922.11 371.667 921.44 374.305 921.171 377C920.838 380.324 921.148 383.674 920.83 387C920.702 388.341 920.458 389.667 920.271 391L919.729 395L919.155 399L918.845 402L918.576 404L918.282 406L917.845 410L917.281 414C917.096 415.33 917.004 416.679 916.755 418L916.29 420L915.695 422L915.17 424L914.958 425L914.579 427L913.799 431C913.529 432.338 913.265 433.681 912.911 435C912.364 437.037 911.597 439 910.934 441L909.978 444C909.33 446.01 908.683 448.024 907.936 450C907.175 452.014 906.253 453.966 905.544 456C904.971 457.642 904.573 459.331 904.092 461C903.607 462.683 903.049 464.34 902.493 466C902.044 467.342 901.606 468.687 901.077 470C900.253 472.045 899.226 473.997 898.309 476L896.564 480L896.111 481L895.111 483C894.397 484.355 893.602 485.666 892.85 487C891.917 488.656 890.988 490.316 890.106 492L888.587 495L886.59 499C885.765 500.677 884.997 502.386 884.049 504C882.604 506.458 880.828 508.7 879.151 511L875.525 516L870.881 522L868.58 525L867.055 526.998L865.703 528.975L864.739 530.839L864.245 532.329L864 534L865.671 533.346L867.146 532.39L868.935 530.851L869.835 529.941C871.041 528.69 872.107 527.315 873.286 526.039L875.089 524.17L877.015 522.424L878.004 521.576L880 519.83L881 518.911C882.988 517 884.985 515.088 886.791 513.001L888.406 511.015C889.13 510.065 889.821 509.084 890.59 508.17L892.17 506.424L893.873 504.715C894.74 503.821 895.577 502.909 896.385 501.961C897.748 500.361 899.01 498.68 900.269 497L902.51 494C903.857 492.287 905.312 490.667 906.714 489C907.538 488.022 908.327 487.018 909.101 486C910.345 484.365 911.522 482.678 912.706 481L915.495 477L917.493 474L919.47 471C920.504 469.362 921.447 467.672 922.424 466L924.799 462L926.562 459C927.665 457.033 928.635 454.997 929.681 453C930.379 451.666 931.143 450.368 931.777 449C932.683 447.046 933.318 444.985 934.148 443C935.138 440.633 936.353 438.369 937.341 436L938.897 432C939.422 430.668 939.982 429.35 940.46 428L942.089 423C942.934 420.645 944.039 418.393 944.78 416C945.086 415.012 945.33 414.01 945.551 413C945.842 411.666 946.072 410.323 946.416 409L947.585 405L948.742 400L949.525 397C949.851 395.676 950.142 394.342 950.384 393C950.564 392.003 950.721 391.007 950.834 390C950.983 388.668 951.023 387.322 951.255 386L951.71 384L952.559 381C952.873 379.679 953.062 378.34 953.267 377L953.714 374C953.834 373.002 953.927 372.005 953.961 371C954.016 369.334 953.975 367.664 954.089 366C954.251 363.653 954.75 361.348 954.911 359C955.002 357.669 954.996 356.333 954.999 355L955 350L955 344C954.999 342.668 955.019 341.331 954.961 340C954.917 338.995 954.844 337.998 954.714 337L954.286 334L954.089 332C953.998 330.668 954.018 329.333 953.986 328C953.962 326.997 953.925 325.999 953.83 325L953.424 322C953.285 321.001 953.16 320.007 953.089 319L952.961 315C952.918 313.995 952.84 312.998 952.711 312C952.58 310.994 952.392 309.994 952.195 309L951.576 306C951.13 304.001 950.637 302.014 950.261 300L949.576 296L948.424 290C948.121 288.333 947.887 286.65 947.497 285C946.854 282.281 945.833 279.674 945.036 277L944.475 275L943.704 272L943.06 270C942.575 268.643 941.974 267.331 941.424 266C940.463 263.677 939.513 261.347 938.612 259L937.505 256L936.495 253C935.783 250.972 935.014 248.962 934.135 247C933.681 245.986 933.198 244.989 932.691 244L930.591 240L928.573 236C927.867 234.645 927.133 233.305 926.339 232L924.4 229C923.746 228.009 923.074 227.027 922.478 226C921.912 225.027 921.388 224.033 920.94 223L919.286 219.004C918.826 217.999 918.317 217.021 917.721 216.09L916.427 214.285L914.221 211.715L912.734 209.91L910.576 206.996L908.346 204C906.794 201.97 905.19 199.98 903.576 198L901.084 195C899.998 193.681 898.932 192.349 897.883 191C896.838 189.654 895.81 188.295 894.7 187C893.818 185.971 892.897 184.982 891.964 184L889.089 181L887.286 179L884.714 176C883.823 174.975 882.901 173.98 881.961 173.001C880.365 171.34 878.713 169.729 877.015 168.174L872.424 164.116L866.987 159.055L865.024 157.34L863.16 155.896L861.671 154.904L860 154M673 246L671 246.542L670.494 246.685L669 247L669.229 248.671L669.654 250.156L670.457 251.966L671.009 252.857L672.394 254.392L674.105 255.343L676.011 255.593L676.979 255.487L677.956 255.269L679.841 254.68L680.329 254.495L682 254L682.904 255.671L683.892 257.16L685.304 259.025L686.906 261.002L688.461 263L689.812 265C691.211 267.235 692.248 269.666 693.464 271.999C693.996 273.021 694.588 274.013 695.245 274.961L696.668 276.83L698.192 278.576C699.156 279.679 700.173 280.764 700.832 282.09L701.528 284.015L701.682 285.004L701.675 287L701.479 288.998L701.433 289.992L701.488 290.966L702.067 292.767L702.618 293.531L704.148 294.681L706.005 295.482L707.907 296.349L709.675 297.583L710.485 298.347L711.985 300.094L713.409 302.015L715.459 305L716.086 306L718.445 310L720.255 313L720.829 314L721.869 316C722.33 316.991 722.761 317.988 723.174 319C723.701 320.294 724.163 321.635 724.471 323C725.066 325.626 724.996 328.325 725 331L725 340L717.998 340.001C716.336 340.009 714.654 339.976 713 340.185L711 340.533L710 340.804L709 341.148L707 342.09L705.005 343.419L704.018 344.225L702.133 346.044L700.51 348.004L699.843 349.001C699.223 349.926 698.822 350.977 698.404 352L697.78 354L697.431 356L697.397 357L697.674 359C697.914 360.033 698.34 361.006 698.697 362L699.425 363.996L700.1 365.955L700.474 366.885L701.428 368.55L702.152 369.363L704 371L702.914 371.725L702.483 371.902L701.679 372.31L700.862 372.657L698.982 373.461C695.739 374.796 692.417 375.959 689 376.764C687.676 377.076 686.338 377.331 685 377.576C683.326 377.883 681.648 378.15 680 378.583L676 379.796C674.678 380.179 673.345 380.498 672 380.789C670.341 381.147 668.673 381.449 667 381.729C665.662 381.953 664.315 382.11 663 382.455L661 383.089L659 383.83L657 384.451L656 384.675C655.011 384.884 654 384.991 653 385.13L651 385.421L649 385.729L645 386.271C643.666 386.458 642.341 386.696 641 386.831C639.337 386.998 637.661 386.987 636 387.173L634 387.464L632.005 387.884L629.16 388.535L627.671 388.813L626 389L626.203 387.329L626.573 385.858C626.904 384.947 627.262 384.051 627.858 383.274L629.279 381.853L631.053 380.836C632.312 380.289 633.604 379.828 634.84 379.225L636.329 378.344L638 377L633.955 377.001C632.637 377.005 631.316 376.999 630 377.09C628.321 377.205 626.661 377.473 625 377.733C623.996 377.89 622.996 378.038 622 378.239L621 378.499L619.004 379.317L617.043 380.573L616.105 381.344L615.214 382.189L614.394 383.094L612.991 385.015L612.403 386.004C611.877 386.989 611.397 387.989 610.924 389C610.158 390.639 609.401 392.292 608.799 394C608.118 395.934 607.602 397.946 607.3 399.975C607.135 401.087 607.051 402.206 607.015 403.329L607 405L605.329 404.361L604.841 404.044L603.84 403.48L601.975 402.152L599 399.92L597 398.519L595.005 397.214L593.063 395.91L592.167 395.215L591.377 394.471L590.342 392.815L590.191 391.907L590.302 390.96L591.167 388.996C591.769 387.968 592.467 386.998 593.116 386L594.985 383L597.911 378L600.496 374C601.582 372.329 602.641 370.643 603.769 369C604.47 367.98 605.23 367.001 605.976 366.015C607.134 364.484 608.28 362.934 609.576 361.515C610.279 360.746 611.049 360.035 611.788 359.3L612.433 358.646L613.02 357.844L613.349 357.473L614 356L615.454 356.944L616.255 357.347L616.565 357.56L618 358L618 351L623.025 351.04L624.997 351.184L626.955 351.519L628.841 352.083L629.329 352.232L631 353L629.914 353.487L629.483 353.475L628.681 353.553L627.867 353.482L626.966 353.39L625.156 353.167L623.671 353.042L622 353L622 355L624.159 355.186L625.16 355.34L627.025 355.836L628.005 356.174L631 357.38L636 359.457L638 360.269C639.949 361.023 641.906 361.757 643.84 362.551L645.329 363.19L647 364L646.448 362.329L646.187 361.841L645.715 360.84C645.168 359.866 644.576 358.915 643.941 357.995C642.985 356.611 641.955 355.279 640.816 354.039C639.926 353.072 638.978 352.164 637.985 351.304C637.03 350.477 636.027 349.726 635 348.992L633 347.754L632 347.239L630 346.399C629.018 346.035 628.016 345.767 627 345.519L625 345.18L622 344.881L621 344.725L619 344.143C617.182 343.416 615.62 342.207 614.005 341.129L612.045 339.988L610.159 339.311L609.671 339.159L608 339L608.098 340.671L608.167 341.159L608.286 342.16L608.714 345.005L608.911 347C609.004 348.329 608.996 349.664 609.039 350.995L609.178 352.955L609.478 354.841L609.568 355.329L610 357L608.329 357.627L607.841 357.731L606.84 358.009L603.995 358.576L600 359.261C598.653 359.503 597.324 359.813 596 360.155C594.33 360.587 592.687 361.123 591 361.489C589.015 361.92 586.987 362.089 585 362.51L582 363.255L580 363.679C578.681 363.93 577.331 363.994 576 364.155L571 364.826C570.008 364.929 568.996 364.948 568 364.892C566.988 364.835 565.992 364.693 565 364.485C563.988 364.274 562.991 363.985 562 363.691C560.99 363.392 559.993 363.06 559 362.71L558 362.326L557 361.896L556 361.421L554 360.322L552.005 359.022L551.018 358.295L549.133 356.696C548.272 355.865 547.457 354.967 546.804 353.961L546.188 352.985C545.439 351.677 544.758 350.334 544.056 349C542.671 346.365 541.209 343.764 540.089 341C539.423 339.355 538.885 337.66 538.258 336C537.633 334.341 536.909 332.719 536.455 331C536.195 330.012 536.047 329.007 535.884 328L535.579 326L535.13 323L534.725 320C534.528 318.659 534.259 317.33 533.999 316L532.996 311L532.556 309.001L531.971 307.015L531.062 305.105L529.697 303.39L527.946 301.951C526.693 301.094 525.379 300.325 524.17 299.406C522.948 298.478 521.838 297.422 520.714 296.381C519.133 294.917 517.545 293.459 515.996 291.961L512.001 288C510.367 286.357 508.721 284.723 507.171 283C506.005 281.705 504.896 280.36 503.808 279C503.019 278.013 502.234 277.02 501.489 276C499.852 273.758 498.422 271.382 497.001 269C496.022 267.359 495.014 265.724 494.184 264L493.311 262L491.845 258C491.336 256.665 490.747 255.357 490.296 254L489.963 253C489.663 252.005 489.386 251.008 489.134 250C488.804 248.679 488.493 247.349 488.3 246C487.922 243.353 488.001 240.666 488 238L488.001 233C488.009 231.334 487.993 229.659 488.174 228L488.468 226L488.928 224L489.225 223.001L489.97 221.015L491.005 219.09L491.652 218.174L493.214 216.465L494.105 215.669L496.015 214.159C497.625 212.985 499.265 211.862 501 210.88C501.98 210.325 502.978 209.829 504 209.36L506 208.599C506.972 208.254 507.996 208.048 509 207.82L511 207.454L513 207.26C514.35 207.219 515.673 207.389 517 207.62C518.005 207.794 519.007 208.003 520 208.236C522.038 208.715 524.042 209.322 526 210.066C527.016 210.452 528.011 210.877 529 211.327L531 212.36L533 213.599C534.032 214.289 535.032 215.042 535.999 215.819L537.985 217.44L538.961 218.289L540.83 220.09C542.036 221.331 543.13 222.676 544.245 223.997L548.243 228.715L550.305 231.285L551.586 233.09L554.755 237.961C555.375 238.901 556.008 239.843 556.725 240.714C557.724 241.926 558.84 243.028 560.054 244.025C561.271 245.025 562.56 245.921 564 246.57C565.561 247.275 567.291 247.666 569 247.735C571.377 247.832 573.714 247.197 576 246.625C577.003 246.374 578.011 246.129 579 245.829C580.024 245.519 581.042 245.183 582 244.698C584.236 243.564 586.101 241.876 587.999 240.267C589.655 238.864 591.316 237.469 592.83 235.91C594.04 234.664 595.14 233.316 596.271 231.999L598.87 229C602.276 225.045 605.546 220.817 610 217.97C611.838 216.795 613.863 215.856 616 215.39C617.315 215.104 618.659 215.048 620 215.015L623 215.001C625.006 215.007 627.014 215.003 629 215.325C630.693 215.599 632.329 216.126 634 216.501C635.324 216.798 636.661 217.027 638 217.245L641 217.714L643 217.911C644.665 218.034 646.336 218.009 648 218.17C649.005 218.267 650.001 218.43 651 218.576L652.999 218.85L654.985 219.109L655.957 219.303L656.895 219.6L658.61 220.603C659.458 221.284 660.08 222.174 660.691 223.059L661.309 224.019L662.63 226.001C663.377 227.037 664.192 228.012 665 229C666.056 230.292 667.136 231.561 667.992 233C668.562 233.957 669.013 234.954 669.391 236L670.64 239.995L671.422 241.955L671.823 242.84L672.231 243.841L672.464 244.329L673 246M530 291L529.657 289.329L528.971 287.84L527.701 285.975L525.255 283L524.495 282L523.228 280L522.286 278L521.916 277L521.598 276L521.336 275L520.876 273L520.61 272L519.829 270C518.915 268.173 517.551 266.635 516.35 265L514.991 263L513.916 261C513.294 259.714 512.804 258.356 512.36 257C511.93 255.69 511.553 254.362 511.326 253C511.05 251.351 510.997 249.669 511.019 248C511.04 246.322 511.149 244.648 511.478 243C511.749 241.647 512.173 240.346 512.622 239.045L512.954 238.16L513.305 237.159L513.502 236.671L514 235L515.63 236.671L516.987 238.16C517.791 239.09 518.572 240.033 519.325 241.004L521.495 243.96C522.17 244.885 522.829 245.82 523.594 246.675L525.17 248.255L526.014 249L527.714 250.514L529.32 252.184L530.071 253.093L531.422 255.015L532.468 257.001L533.043 259L533.064 260.995L532.867 261.981L532.548 262.941L531.592 264.679L530.858 265.483L529 267L529.044 270.16L529.109 271.041L529.228 272.009L529.742 273.893L530.179 274.772L531.434 276.258L533.109 277.258L535.011 277.772L536.956 277.956C538.304 278.004 539.651 277.996 541 278L540.902 276.329L540.714 274.84C540.486 273.228 540.182 271.634 540.179 270C540.176 267.986 540.661 266.013 540.66 264C540.66 262.99 540.528 262 540.409 261L540.15 259C539.982 257.661 539.879 256.303 539.505 255C538.656 252.051 536.853 249.472 534.975 247.09L533.471 245.285L531.254 242.715C530.159 241.457 529.06 240.207 527.921 238.989L523.514 234.3L521.255 231.904L519.675 230.483L517.907 229.307L515.985 228.557L514.996 228.387L513.004 228.488L512.015 228.761L510.094 229.743L509.189 230.434L507.573 232.109L506.318 234.015L505.858 235.004L505.278 237L505.13 238L504.915 241L504.718 243L504.464 245L504.34 247L504.375 248L504.464 249L504.722 251L504.95 253L505.285 256C505.676 258.721 506.273 261.433 507.268 264C508.076 266.088 509.122 268.072 510.253 270L513.301 275C514.242 276.634 515.057 278.343 516.114 279.91C517.541 282.024 519.331 283.851 521.13 285.646C522.384 286.896 523.628 288.17 525.149 289.102L526.879 289.975L527.856 290.332L528.333 290.506L530 291M831 233L831 236L829.989 235.091L829.806 234.653L829 233L831 233M312 235L312.184 236.671L312.279 237.159L312.44 238.16C312.754 239.781 313.09 241.395 313.475 243L314.526 247L315.474 251L316.501 255C316.8 256.324 317.019 257.662 317.246 259L317.924 263C318.097 264.004 318.269 265.008 318.503 266C318.982 268.03 319.706 269.987 320.245 272L321.416 277L322.638 281L323.727 285L324.258 287C324.502 287.996 324.717 288.992 324.906 290L325.449 293L326.576 298L327.424 302L328.339 306L328.931 309L329.34 311L329.594 312L330.228 314C330.681 315.327 331.145 316.645 331.511 318C331.956 319.65 332.267 321.335 332.651 323C333.193 325.345 333.78 327.681 334.424 330L335.575 334C335.94 335.324 336.275 336.654 336.55 338L337.079 341L337.59 344C337.766 345.002 337.938 346.009 338.17 347C338.566 348.694 339.112 350.348 339.654 352L340.305 353.991L340.688 354.961L341.16 355.883L341.733 356.704L343.17 357.793L343.961 357.944L344.73 357.793L346.015 356.704L346.487 355.883L346.852 354.961L347.138 353.991C347.377 352.999 347.568 352.004 347.749 351L348.08 349L348.728 345C348.975 343.333 349.147 341.657 349.46 340C349.65 338.993 349.889 337.996 350.13 337C350.695 334.674 351.318 332.363 351.715 330L352.134 327C352.282 325.993 352.453 324.995 352.668 324C353.327 320.96 354.368 318.021 355.102 315L355.55 313L356.25 309C356.602 306.993 356.98 304.989 357.425 303C357.725 301.658 358.06 300.326 358.424 299L359.265 296C359.623 294.677 359.914 293.34 360.196 292L361.4 286L362.576 280L363.449 275L364.35 271C364.651 269.671 364.939 268.338 365.195 267C365.45 265.671 365.679 264.343 365.845 263C366.01 261.663 366.108 260.323 366.371 259C366.707 257.311 367.27 255.679 367.665 254.005L368.564 249.671L369 248L379 248C379.014 249.679 379.003 251.351 379.17 253.025C379.303 254.358 379.537 255.679 379.754 257C379.973 258.335 380.184 259.673 380.449 261L381.339 265L381.916 268C382.266 269.993 382.589 271.993 382.845 274C383.015 275.333 383.09 276.674 383.321 278C383.674 280.029 384.3 281.996 384.765 284C385.457 286.987 385.923 290.024 386.665 293C386.917 294.009 387.194 295.009 387.508 296L388.492 299C388.902 300.316 389.273 301.645 389.533 303C389.85 304.652 389.975 306.33 390.156 308L390.438 310C390.711 311.68 391.078 313.345 391.475 315C391.798 316.345 392.208 317.668 392.576 319L393.388 321.995L393.993 323.941L394.779 325.679L395.656 326.914L397 328L397.004 322.975C397.013 321.65 397.032 320.319 397.174 319L397.464 317L397.884 315C398.184 313.671 398.496 312.348 398.704 311L399.285 306C399.524 304.322 399.87 302.662 400.2 301L401.235 296L401.731 294L402.269 292L402.769 290.001L403.251 288.019L403.532 287.059L403.878 286.153L404.31 285.337L404.843 284.662L406.188 283.921L407.751 284.176L408.539 284.662L409.296 285.337L410.671 287.059L411.816 289.005L412.772 291L413.66 293L414.59 295C415.215 296.318 415.861 297.624 416.353 299C416.704 299.983 416.95 300.993 417.221 302C417.492 303.008 417.76 304.009 418.09 305C418.426 306.011 418.804 307.014 419.208 308C419.619 309.007 420.029 310.014 420.489 311C420.965 312.02 421.489 313.012 422.029 314L423.157 315.995L423.735 316.98L424.324 317.938L424.954 318.837L425.634 319.643L427.213 320.802C428.407 321.372 429.725 321.291 431.004 321.227L432.001 321.15L434 321.039C435.998 320.965 438.001 321 440 321L449 321L504 321L504 329L421 329L420.37 327.329L420.163 326.841C419.656 325.566 419.152 324.289 418.695 322.995C417.995 321.01 417.434 318.978 416.714 317C416.095 315.301 415.362 313.651 414.626 312C413.887 310.342 413.135 308.691 412.341 307.059L411.344 305.321L410.673 304.517L410.374 304.086L409 303L408.958 304.671L408.83 306.16C408.67 307.447 408.456 308.723 408.246 310.002L407.754 313C407.536 314.33 407.302 315.658 407.17 317C406.973 318.995 407.023 321.004 406.83 323L406.282 327L405.718 332L405.17 336C405.074 336.999 405.04 337.997 405.011 339L404.91 342C404.792 343.681 404.526 345.34 404.245 347C404.077 347.995 403.934 349.003 403.695 349.985C403.463 350.94 403.195 351.92 402.683 352.772L401.486 354.258L400.721 354.82L399.867 355.254L397.982 355.728L396.999 355.782L396.015 355.728L395.044 355.551L393.225 354.82L392.419 354.258L391.089 352.772L390.133 350.956L389.765 349.985L389.16 347.999C388.884 347.01 388.656 346.006 388.449 345L387.664 341C387.349 339.65 386.927 338.334 386.554 337L385.779 334L385.27 332C384.921 330.672 384.564 329.351 384.31 328L383.856 325L383.49 323L382.499 319C382.071 317.011 381.764 315 381.389 313C381.077 311.333 380.707 309.675 380.438 308L380.156 306C380.007 304.666 379.909 303.324 379.679 302C379.443 300.646 379.072 299.329 378.731 298L378.015 295C377.729 293.674 377.488 292.339 377.271 291C377.109 290.001 376.99 288.991 376.779 288L376.279 286L375.961 285C375.518 283.672 375.048 282.357 374.701 281C374.292 279.405 374.057 277.776 373.75 276.16L373.436 274.671L373 273L372.414 274.671L372.353 275.159L372.142 276.16L372.039 277.045C371.904 278.037 371.771 279.024 371.548 280.002C371.317 281.015 370.988 282.003 370.695 283L370.169 285L369.555 288L368.459 293L367.78 297L367.293 299L366.415 302L365.729 305L365.258 307L364.475 310L363.576 314L362.664 318L362.285 320L361.87 323C361.631 324.671 361.385 326.346 361.041 328C360.83 329.012 360.591 330.007 360.301 331L359.366 334C358.977 335.314 358.681 336.652 358.439 338C358.141 339.657 357.969 341.334 357.729 343L357.271 346L356.729 350L356.281 353C356.094 354.33 356.004 355.679 355.755 357L355.291 359L354.706 361L354.22 363C354.014 363.99 353.888 364.997 353.733 365.995L353.286 368.84L353.167 369.841L353.098 370.329L353 372L336 372L335.802 370.329L335.481 368.84C335.055 367.208 334.525 365.61 334.025 364L333.141 361C332.57 359.005 331.995 357.009 331.475 355L330.525 351L328.895 345C328.316 342.681 327.883 340.329 327.349 338C326.736 335.329 325.991 332.687 325.449 330C325.047 328.004 324.807 325.975 324.299 324C324.038 322.983 323.714 321.99 323.365 321C322.779 319.341 322.131 317.71 321.704 316C321.456 315.008 321.294 314.009 321.135 313L320.866 311C320.67 309.652 320.423 308.318 320.076 307C319.361 304.288 318.192 301.722 317.514 299C317.185 297.681 316.992 296.336 316.751 295C316.448 293.323 316.137 291.652 315.715 290L314.58 286L314.335 285C314.007 283.675 313.822 282.318 313.462 281C312.995 279.291 312.307 277.663 311.705 276L310.701 273L310.331 272L309.41 270L308.885 269C308.393 268.017 307.889 267.059 307.559 266.005C307.269 265.076 307.136 264.127 307.058 263.16L307.019 262.159L307 260L306.373 261.671L306.269 262.159L305.986 263.16L305.789 264.045C305.553 265.035 305.318 266.024 305.029 267.002C304.533 268.681 303.882 270.31 303.419 272L302.504 276L300.895 282L299.522 288C299.088 289.686 298.53 291.332 298.035 293L296.637 298C296.138 299.673 295.545 301.314 295.086 303C294.725 304.323 294.434 305.665 294.12 307L293.211 311C292.784 313.001 292.436 315.021 291.911 317C291.463 318.688 290.862 320.327 290.363 322L289.54 325L288.745 328L288.31 330L288.145 331L287.728 334L287.231 337L286.83 339C286.437 340.69 285.865 342.326 285.412 344L284.678 347C284.421 348.01 284.129 349.005 283.819 350L282.509 354L281.559 357C280.998 358.975 280.613 360.982 280.249 363C280.009 364.335 279.814 365.679 279.501 367L278.475 371L278.015 373C277.727 374.327 277.484 375.663 277.249 377L276.715 380C276.294 382.027 275.702 384.009 275.14 386C274.58 387.987 274.059 389.995 273.367 391.941C272.963 393.077 272.435 394.233 271.438 394.972C270.716 395.508 269.857 395.713 268.987 395.852L267.154 395.981L265 396L264.901 394.329L264.699 392.84C264.531 391.885 264.333 390.937 264.1 389.995C263.767 388.646 263.366 387.318 262.925 386L261.896 383L261.324 381C260.985 379.655 260.682 378.308 260.212 377C259.601 375.298 258.748 373.694 258.114 372C257.501 370.363 257.069 368.674 256.576 367C255.982 364.985 255.343 362.985 254.656 361L253.576 358L251.692 353C251.104 351.345 250.556 349.675 250.025 348L249.14 345C248.75 343.661 248.396 342.309 247.91 341C247.283 339.308 246.575 337.651 245.846 336C245.401 334.992 244.957 333.989 244.471 333L243.926 332L242.582 330.005L241.775 329.019L239.956 327.148L238.985 326.318L236.999 325.028L235 324.318L234 324.148C233.007 324.009 231.999 324.029 231 324.005L230 324.001L227 324L209 324L177 324L166 324L163 324.001L160 324.039C158.994 324.083 157.999 324.162 157 324.285L153 324.83C151.336 324.989 149.668 324.976 148 325.039C146.994 325.076 145.999 325.167 145 325.285L141 325.844L137.045 326.189L136.16 326.258L135.159 326.237L134.671 326.273L133 326L133.745 324.329L134.311 322.844L134.594 321.975C135.07 320.582 135.36 318.983 136.599 318.028C137.295 317.491 138.201 317.25 139.059 317.148C140.699 316.954 142.354 317.027 144 316.91L146 316.715C147.665 316.483 149.321 316.204 151 316.09C152.663 315.976 154.334 316.003 156 316L164 316L248 316L248.328 317.671C248.829 319.824 249.425 321.953 250.268 324C250.689 325.023 251.175 326.013 251.674 327C252.345 328.326 253.068 329.62 253.625 331C254.413 332.95 254.856 335.015 255.543 337L256.692 340L257.421 342L258.707 346L260.621 351L261.968 354.941L262.775 356.679L263.656 357.914L265 359L265.098 360.671L265.167 361.159L265.286 362.16C265.472 363.432 265.704 364.697 265.83 365.977C265.995 367.65 265.986 369.321 266 371L267.115 369.914L267.841 368.679L268.505 366.941L269.377 363.999C269.698 362.979 270.096 361.991 270.495 361L270.92 360C271.462 358.675 272.03 357.361 272.481 356C272.919 354.676 273.313 353.338 273.706 352L274.849 348L275.909 344C276.479 341.99 277.18 340.02 277.715 338C278.065 336.676 278.341 335.334 278.65 334L279.576 330L280.8 324L281.601 320C281.873 318.662 282.146 317.325 282.475 316L283.576 312L284.625 308L285.576 304C285.876 302.664 286.133 301.316 286.514 300C287.102 297.965 287.977 296.032 288.573 294L289.576 290L290.421 287L290.668 286C291 284.672 291.221 283.319 291.593 282C291.88 280.984 292.238 279.994 292.59 279C293.062 277.67 293.544 276.345 293.971 275C294.497 273.346 294.945 271.669 295.421 270L296.849 265L297.87 261L298.551 258L299.449 253L300.789 247L301.579 243L302.17 240.025L302.425 239.045C302.639 238.235 302.939 237.446 303.255 236.671L304 235L312 235M852 245L851.415 246.671L851.164 248.16C851.061 249.439 851.039 250.724 851.173 252.002L851.83 257C851.959 258.33 851.982 259.665 852.036 261L852.089 262L852.3 264C852.589 266.024 853.151 267.997 853.551 270C853.816 271.327 854.027 272.665 854.246 274L854.714 277L854.911 279L855.089 283L855.286 285L855.729 288L856.271 292C856.508 293.666 856.795 295.319 856.911 297C856.979 297.998 856.987 299 856.996 300L857.004 304L857.039 306C857.083 307.006 857.162 308.001 857.286 309L857.83 313C857.925 313.999 857.962 314.997 857.986 316C858.018 317.333 857.998 318.668 858.089 320C858.205 321.681 858.487 323.335 858.729 325L859.271 329C859.508 330.666 859.795 332.319 859.911 334C859.979 334.998 859.987 336 859.996 337L860 340L860 348L860 356L859.996 359C859.987 360 859.979 361.002 859.911 362C859.75 364.348 859.251 366.653 859.089 369C858.998 370.332 859.018 371.667 858.986 373C858.962 374.003 858.926 375.001 858.83 376C858.702 377.341 858.463 378.668 858.271 380L857.729 384C857.542 385.333 857.298 386.659 857.17 388C857.043 389.331 857.016 390.664 857.004 392L856.996 396L856.961 398L856.83 400L856.714 401L856.286 404L856.086 406L855.831 410L855.576 412L855.169 415C854.969 416.999 855 419.013 854.675 421C854.344 423.027 853.675 424.978 853.321 427C853.089 428.325 852.99 429.669 852.805 431L852.392 433C852.131 434.019 851.76 435.006 851.421 436C851.08 436.996 850.737 437.989 850.439 438.998C850.066 440.265 849.745 441.549 849.465 442.84L849.29 443.841L849.187 444.329L849 446L850.671 446.657L851.157 446.886C852.374 447.411 853.591 447.931 854.844 448.365L856.329 448.772L858 449L858.888 447.329L859.202 446.841L859.806 445.84C860.662 444.526 861.555 443.239 862.515 441.998C863.308 440.972 864.159 439.996 864.988 439C865.804 438.021 866.632 437.051 867.355 436L868.587 434L869.572 432L870.485 430C870.967 428.98 871.491 427.986 872.039 427L873.801 424L876.199 420C876.987 418.677 877.787 417.36 878.511 416C879.033 415.018 879.512 414.019 879.958 413C880.816 411.036 881.496 409.001 882.26 407C883.022 405.006 883.884 403.052 884.487 401C884.777 400.011 884.987 399.001 885.231 398C885.557 396.658 885.916 395.328 886.297 394L887.502 390L888.441 387L888.961 385C889.28 383.676 889.535 382.335 889.8 381L890.576 377L891.08 374C891.355 372.339 891.667 370.677 891.83 369C892.056 366.672 891.947 364.328 892.17 362L892.576 359C892.715 358.001 892.842 357.007 892.911 356C893.002 354.669 892.996 353.333 892.999 352L893 347L892.999 342C892.996 340.667 893.002 339.331 892.911 338L892.714 336C892.533 334.667 892.303 333.339 892.169 332L891.831 327L891.166 322C890.987 320.334 890.952 318.656 890.676 317C890.45 315.646 890.077 314.326 889.731 313L889.235 311L887.765 304C887.372 302.318 886.892 300.661 886.42 299L885.539 296L884.829 294C884.282 292.652 883.68 291.33 883.09 290L881.349 286C880.31 283.642 879.244 281.288 878.056 279C877.007 276.981 875.824 275.036 874.809 273C874.316 272.013 873.868 271.009 873.424 270C872.678 268.302 871.988 266.582 871.007 265L869.621 263L868.826 262L867.141 260L865.51 258L864.745 257L862.486 254L861.675 253L859.907 251.005L857.99 249.059L857.021 248.149L855.16 246.61L854.159 245.995L853.671 245.654L852 245M576 265L575.103 266.625L574.959 267L574.415 268.375L574 270L575.671 271.011L576.159 271.258L577.16 271.816L578.045 272.272C579.04 272.807 580.031 273.344 581.002 273.924L584 275.823L585 276.471C586.956 277.68 588.944 278.847 591 279.88C591.984 280.374 592.981 280.836 594 281.255L597 282.449L599 283.312C600.69 284.076 602.342 284.924 604 285.753C605.673 286.589 607.346 287.424 609 288.298L614 290.997C615.645 291.872 617.288 292.743 619 293.481L621 294.185L622.995 294.562L623.981 294.586L624.941 294.473L625.851 294.218L626.677 293.807L627.914 292.581L628.248 291.815L628.364 290.996L628.248 290.17L627.914 289.378L626.677 287.99L624.941 286.877L622.995 285.899C621.336 285.08 619.681 284.249 618 283.475L614 281.695L610 279.86L605 277.691L598 274.309L592 271.691C589.976 270.762 587.998 269.737 586 268.756C584.362 267.952 582.725 267.135 581.025 266.468L579.16 265.794L578.159 265.509L577.671 265.357L576 265M803 413L804.671 412.981C805.8 412.928 806.937 412.813 808.025 412.49C809.828 411.955 811.424 410.983 812.999 409.981L814.985 408.651L815.957 407.96L816.896 407.24L818.621 405.674C819.692 404.559 820.559 403.289 821.381 401.985C821.997 401.009 822.574 400.007 823.138 399C823.875 397.686 824.569 396.349 825.24 395C825.733 394.01 826.225 393.016 826.664 392L827.468 390L828.529 387L829.294 385L830.064 383L830.41 382L831.551 378C831.928 376.669 832.352 375.355 832.64 374C832.921 372.679 833.074 371.335 833.27 370C833.466 368.668 833.696 367.34 833.831 366L834.169 361C834.303 359.661 834.533 358.333 834.714 357L834.911 355C835.002 353.669 834.995 352.333 834.999 351L835 347L834.999 343C834.995 341.667 835.002 340.331 834.911 339C834.773 336.985 834.381 335.006 834.166 333L833.83 329L833.536 327C833.358 325.992 833.109 324.997 832.88 324L832.424 322L831.765 319C831.526 317.991 831.262 316.992 830.961 316C830.447 314.31 829.818 312.66 829.217 311L828.166 308L827.471 306L825.897 302C825.227 300.316 824.611 298.607 823.765 297C823.026 295.598 822.149 294.292 821.235 293L819.674 291.005L817.907 289.059L816.96 288.148L814.996 286.6L813 285.564C812.046 285.17 811.008 284.969 810 284.774C809.015 284.583 808.019 284.431 807.019 284.345C805.872 284.247 804.561 284.321 803.603 285.042C802.662 285.751 802.279 286.934 802.148 288.059C801.996 289.368 802.006 290.684 802.001 292L802 296L802 328L802 363L802 389L802 399L802.004 403C802.013 404 802.021 405.001 802.089 405.998C802.202 407.627 802.471 409.231 802.725 410.841L802.817 411.329L803 413M757 376L758.671 376.972L759.159 377.306C761.051 378.499 762.932 379.757 765 380.633C766.574 381.301 768.269 381.829 770 381.751L772 381.421L773 381.058L774 380.566L775.995 379.276L777.946 377.695L778.87 376.826L779.737 375.91L780.529 374.961L781.246 373.985L781.891 372.996L783.025 371C783.538 370.026 784.004 369.026 784.405 368C784.916 366.696 785.315 365.345 785.701 364C786.174 362.353 786.611 360.705 786.816 359C787.014 357.343 786.991 355.666 786.999 354L787 348L786.996 345C786.987 344 786.98 342.998 786.911 342C786.792 340.316 786.528 338.653 786.191 337C785.917 335.651 785.621 334.3 785.161 333C784.793 331.961 784.333 330.97 783.811 330C782.871 328.252 781.709 326.632 780.586 325L779.191 323L777.821 321.005L776.402 319.062L774.791 317.361L772.957 316.241L771 315.956L770.014 316.117L769.04 316.422L767.184 317.333L766.325 317.881L765.514 318.468C764.701 319.092 763.982 319.811 763.255 320.529L761.694 322.185C760.849 323.109 760.029 324.047 759.235 325.015L758.484 326.004L757.213 328L756.198 330L755.75 331C755.312 331.969 754.926 332.978 754.63 334C754.158 335.633 753.977 337.324 753.73 339L753.286 342L753.17 343L753.039 345L753.001 348L753.015 351C753.049 352.335 753.082 353.683 753.325 355L753.745 357L754.487 360L754.83 362C755.025 363.67 755.165 365.344 755.463 367L756.116 369.995L756.699 372.84L756.901 374.329L757 376M645 366L645.183 367.667L645.275 368.134L645.574 369.884L645.725 370.866L645.817 371.333L646 373L648 373L647.985 371.333C647.962 370.594 647.922 369.851 647.84 369.116L647.642 368.134L647.585 367.667L647 366L645 366M511 385L512.458 383L512.821 382.494L514 381L515.671 381.862L516.159 382.153L517.16 382.725L519.025 383.904C521.047 385.24 522.935 386.773 525 388.046C525.974 388.647 526.98 389.175 528 389.691C529.349 390.374 530.723 390.995 532 391.811C534.126 393.17 535.966 394.91 538 396.396C539.612 397.573 541.324 398.609 543 399.691L547 402.329C548.32 403.194 549.64 404.054 551 404.855L553.995 406.541L554.981 407.095L556.848 408.269L557.667 408.915L558.864 410.38L559.172 411.21L559.154 413.042L558.87 414.011L557.986 415.956L557.511 416.84L556.728 418.329L556 420L554.329 419.529L552.84 418.829L550.975 417.655C549.617 416.679 548.317 415.633 547 414.603L544 412.285L542 410.851L540 409.459C538.674 408.53 537.36 407.586 536 406.707L532 404.258L528 401.691C526.666 400.83 525.303 400.007 524 399.1L522 397.637L518 394.364C516.735 393.364 515.386 392.491 514 391.67C512.377 390.708 510.686 389.871 509 389.028L507.001 388.079L506.004 387.611L504.044 386.597L503.109 386.009L501.434 384.606L500.179 382.897L499.434 381.009L499.228 380.041L499.109 379.16L499.016 377.671L499 376C500.051 376.009 501.109 375.99 502.16 376.039L504.024 376.174L505 376.305L506.941 376.724L508.682 377.434L509.397 377.938L509.972 378.562L510.397 379.299L510.852 381.013L510.941 381.859C511 382.911 510.987 383.945 511 385M568 413L569.671 414.317L571.16 415.395C574.737 417.891 578.43 420.215 582 422.721C583.69 423.907 585.35 425.135 587 426.375C588.691 427.646 590.378 428.922 591.996 430.285C594.238 432.174 596.371 434.193 598.424 436.285C599.618 437.503 600.803 438.738 601.934 440.015C602.783 440.971 603.626 441.942 604.348 443L605.543 445L605.99 446L606.59 448L606.742 449L606.786 450L606.555 452L606.268 453L605.86 454L605.347 454.999C604.727 456.021 604.083 457.021 603.316 457.941C602.172 459.31 600.811 460.795 598.961 461.119L596.996 461.009L595.999 460.667L595 460.192L594 459.636L593 459.046L592 458.448L590 457.309C588.33 456.393 586.639 455.52 585 454.548L582 452.681L578 450.207L575 448.475L571 446.302C569.326 445.349 567.717 444.276 566 443.398C565.022 442.898 564.019 442.471 563 442.065C561.668 441.534 560.311 441.074 559.002 440.487C557.993 440.035 557.02 439.522 556.045 439.005L555.16 438.515L554.159 438.005L553.671 437.728L552 437L552.456 435.329L553.092 433.84L554.11 431.975C554.737 430.974 555.36 429.974 556.029 429L559.576 424C560.506 422.682 561.417 421.351 562.301 420.002L563.532 418.025L564.586 416.16L565.327 414.671L566 413L568 413z"/>
</svg>
